<svg width="32" height="32" viewBox="0 0 32 32" fill="none" xmlns="http://www.w3.org/2000/svg">
<path d="M15.9815 32.0001C14.1454 32.0001 12.297 31.6873 10.5191 31.0407L9.80573 30.781C9.25184 30.5795 9.09358 29.8711 9.51148 29.4532L16.6874 22.276C17.0027 21.9607 17.5121 21.9607 17.8274 22.276L18.5123 22.9609C18.8276 23.2762 18.8276 23.7868 18.5123 24.1009L13.9921 28.6211C13.7597 28.8535 13.887 29.2615 14.2122 29.3048C18.312 29.85 22.517 28.4838 25.4954 25.5042C29.2008 21.7987 30.4755 16.3117 28.5184 10.9755C28.5072 10.9445 28.4936 10.9124 28.48 10.8815C24.2912 1.53445 12.9214 0.0804677 6.49471 6.50594C3.51627 9.48438 2.1513 13.6918 2.69531 17.7891C2.73858 18.1156 3.14659 18.2429 3.37903 18.0092L7.50854 13.8785C7.82382 13.5632 8.33321 13.5632 8.64848 13.8785L9.33344 14.5634C9.64871 14.8787 9.64871 15.3881 9.33344 15.7034L2.54571 22.4899C2.12905 22.9065 1.41937 22.7495 1.21784 22.1956L0.958196 21.4822C-1.15972 15.6502 0.296733 9.05535 4.67105 4.68104C12.3416 -2.98452 25.9158 -1.23504 30.8873 9.927C30.8996 9.95544 30.912 9.98511 30.9219 10.0135C33.2537 16.371 31.7354 22.9139 27.3178 27.3291C24.2788 30.3681 20.1641 32.0001 15.9802 32.0001H15.9815Z" fill="#002E72"/>
<path d="M18.0301 16.2164C17.7149 15.9012 17.2055 15.9012 16.8902 16.2164L7.09064 26.016L5.87776 27.2289C5.54641 27.5602 5.55877 28.1104 5.91979 28.4084C6.1955 28.6359 6.47493 28.8535 6.76177 29.0587C7.07828 29.2862 7.5172 29.238 7.79291 28.9623L9.19867 27.5565L18.7139 18.0413C19.0291 17.7261 19.0291 17.2167 18.7139 16.9014L18.0301 16.2177V16.2164Z" fill="#002E72"/>
<path d="M15.1012 13.2863C14.7859 12.971 14.2765 12.971 13.9612 13.2863L4.44479 22.8027L3.0415 24.206C2.76579 24.4817 2.71757 24.9206 2.94506 25.2371C3.15154 25.524 3.3679 25.8046 3.59416 26.0791C3.89213 26.4401 4.44355 26.4525 4.77367 26.1211L5.98532 24.9095L15.7849 15.1099C16.1002 14.7946 16.1002 14.2853 15.7849 13.97L15.1012 13.2863Z" fill="#002E72"/>
</svg>
